<?xml version="1.0" encoding="UTF-8" standalone="no"?>
<!-- Created with Inkscape (http://www.inkscape.org/) -->

<svg
   xmlns:dc="http://purl.org/dc/elements/1.1/"
   xmlns:cc="http://creativecommons.org/ns#"
   xmlns:rdf="http://www.w3.org/1999/02/22-rdf-syntax-ns#"
   xmlns:svg="http://www.w3.org/2000/svg"
   xmlns="http://www.w3.org/2000/svg"
   xmlns:sodipodi="http://sodipodi.sourceforge.net/DTD/sodipodi-0.dtd"
   xmlns:inkscape="http://www.inkscape.org/namespaces/inkscape"
   version="1.0"
   width="900"
   height="900"
   viewBox="0 0 900 900"
   id="Layer_1"
   xml:space="preserve"
   sodipodi:docname="dataliens.svg"
   inkscape:version="0.92.2 5c3e80d, 2017-08-06"
   inkscape:export-filename="/Users/echar4/datalayer/repos/dataliens/logo/dataliens.png"
   inkscape:export-xdpi="300"
   inkscape:export-ydpi="300"><metadata
     id="metadata8"><rdf:RDF><cc:Work
         rdf:about=""><dc:format>image/svg+xml</dc:format><dc:type
           rdf:resource="http://purl.org/dc/dcmitype/StillImage" /><dc:title></dc:title></cc:Work></rdf:RDF></metadata><sodipodi:namedview
     pagecolor="#ffffff"
     bordercolor="#666666"
     borderopacity="1"
     objecttolerance="10"
     gridtolerance="10"
     guidetolerance="10"
     inkscape:pageopacity="0"
     inkscape:pageshadow="2"
     inkscape:window-width="1017"
     inkscape:window-height="685"
     id="namedview6"
     showgrid="false"
     inkscape:zoom="0.26222222"
     inkscape:cx="375"
     inkscape:cy="450"
     inkscape:window-x="0"
     inkscape:window-y="0"
     inkscape:window-maximized="0"
     inkscape:current-layer="Layer_1" /><defs
     id="defs11" /><path
     inkscape:connector-curvature="0"
     id="path4"
     d="m 439.83051,8.5 c -148.5,0 -353.500002,93.7 -353.500002,337.5 0,0.8 0,1.7 0,2.5 1.7,242.7 248.600002,543 353.500002,543 105.3,0 353.5,-301.7 353.5,-545.5 0,-243.8 -205,-337.5 -353.5,-337.5 z m -318,359 c 173,0 298,122 298,305 -181,0 -298,-117 -298,-305 z m 642,0 c 0,188 -119.4,305 -304,305 0,-183 127.5,-305 304,-305 z" /></svg>